<svg width="18" height="18" viewBox="0 0 18 18" fill="none" xmlns="http://www.w3.org/2000/svg">
<path d="M0 0H18C18 3.21525 15.3923 5.823 12.177 5.823H5.823C2.60775 5.823 0 3.21525 0 0Z" fill="#FF6B00"/>
<path d="M18 18H0C0 14.7848 2.60775 12.177 5.823 12.177H12.177C15.3923 12.177 18 14.7848 18 18Z" fill="#FF6B00"/>
<path d="M8.99999 11.8664C10.5831 11.8664 11.8665 10.583 11.8665 8.99992C11.8665 7.4168 10.5831 6.13342 8.99999 6.13342C7.41686 6.13342 6.13348 7.4168 6.13348 8.99992C6.13348 10.583 7.41686 11.8664 8.99999 11.8664Z" fill="#AB9DFF"/>
</svg>
