<svg width="18" height="18" viewBox="0 0 18 18" fill="none" xmlns="http://www.w3.org/2000/svg">
<path d="M4.5 13.5C6.98528 13.5 9 11.4853 9 9C9 6.51472 6.98528 4.5 4.5 4.5C2.01472 4.5 0 6.51472 0 9C0 11.4853 2.01472 13.5 4.5 13.5Z" fill="#FF6B00"/>
<path d="M9 0C9 2.48625 6.98625 4.5 4.5 4.5C2.01375 4.5 0 2.48625 0 0H9Z" fill="#AB9DFF"/>
<path d="M0 18C0 15.5137 2.01375 13.5 4.5 13.5C6.98625 13.5 9 15.5137 9 18H0Z" fill="#AB9DFF"/>
<path d="M13.5 13.5C15.9853 13.5 18 11.4853 18 9C18 6.51472 15.9853 4.5 13.5 4.5C11.0147 4.5 9 6.51472 9 9C9 11.4853 11.0147 13.5 13.5 13.5Z" fill="#FF6B00"/>
<path d="M18 0C18 2.48625 15.9862 4.5 13.5 4.5C11.0137 4.5 9 2.48625 9 0H18Z" fill="#AB9DFF"/>
<path d="M9 18C9 15.5137 11.0137 13.5 13.5 13.5C15.9862 13.5 18 15.5137 18 18H9Z" fill="#AB9DFF"/>
</svg>
