<svg width="18" height="18" viewBox="0 0 18 18" fill="none" xmlns="http://www.w3.org/2000/svg">
<path d="M0 0V17.9302H18V0H0ZM8.99999 13.464C6.51374 13.464 4.5 11.4502 4.5 8.96399C4.5 6.47774 6.51374 4.46399 8.99999 4.46399C11.4862 4.46399 13.5 6.47774 13.5 8.96399C13.5 11.4502 11.4862 13.464 8.99999 13.464Z" fill="#FF6B00"/>
<path d="M0 6.47324C3.58875 6.47324 6.498 3.57525 6.498 0H0V6.47324Z" fill="#AB9DFF"/>
<path d="M11.502 0C11.502 3.57525 14.4113 6.47324 18 6.47324V0H11.502Z" fill="#AB9DFF"/>
<path d="M18 11.5267C14.4113 11.5267 11.502 14.4247 11.502 18H18V11.5267Z" fill="#AB9DFF"/>
<path d="M6.498 18C6.498 14.4247 3.58875 11.5267 0 11.5267V18H6.498Z" fill="#AB9DFF"/>
</svg>
