<svg width="18" height="18" viewBox="0 0 18 18" fill="none" xmlns="http://www.w3.org/2000/svg">
<path d="M9 0C4.02975 0 0 4.02975 0 9C0 13.9703 4.02975 18 9 18C13.9703 18 18 13.9703 18 9C18 4.02975 13.9703 0 9 0ZM9 17.6895C7.0875 12.465 5.53725 10.9125 0.3105 9C5.535 7.0875 7.0875 5.53725 9 0.310501C10.9125 5.535 12.4627 7.0875 17.6895 9C12.465 10.9125 10.9125 12.4627 9 17.6895Z" fill="#AB9DFF"/>
<path d="M9.00002 13.3133C8.05052 10.719 7.28102 9.94952 4.68677 9.00002C7.28102 8.05052 8.05052 7.28102 9.00002 4.68677C9.94952 7.28102 10.719 8.05052 13.3133 9.00002C10.719 9.94952 9.94952 10.719 9.00002 13.3133Z" fill="#FF6B00"/>
</svg>
