<svg width="37" height="7" viewBox="0 0 37 7" fill="none" xmlns="http://www.w3.org/2000/svg">
<mask id="mask0_2006_178" style="mask-type:luminance" maskUnits="userSpaceOnUse" x="0" y="0" width="37" height="7">
<path d="M37 6.10474L0 6.10474L0 1.23978e-05L37 1.23978e-05V6.10474Z" fill="white"/>
</mask>
<g mask="url(#mask0_2006_178)">
<path d="M2.41119 1.23978e-05H0.197571L4.94221 6.10474H7.15581L2.41119 1.23978e-05Z" fill="#FF6D10"/>
<path d="M7.35338 7.34329e-05H5.13977L9.88276 6.1048H12.0964L7.35338 7.34329e-05Z" fill="#FF6D10"/>
<path d="M12.2939 7.34329e-05H10.0803L14.8249 6.1048H17.0386L12.2939 7.34329e-05Z" fill="#FF6D10"/>
<path d="M17.2361 7.34329e-05H15.0225L19.7655 6.1048H21.9791L17.2361 7.34329e-05Z" fill="#FF6D10"/>
<path d="M22.1767 7.34329e-05H19.9631L24.7077 6.1048H26.9213L22.1767 7.34329e-05Z" fill="#FF6D10"/>
<path d="M27.1189 7.34329e-05H24.9036L29.6483 6.1048H31.8619L27.1189 7.34329e-05Z" fill="#FF6D10"/>
<path d="M32.0595 7.34329e-05H29.8458L34.5888 6.1048H36.8025L32.0595 7.34329e-05Z" fill="#FF6D10"/>
</g>
</svg>
