<svg width="111" height="19" viewBox="0 0 111 19" fill="none" xmlns="http://www.w3.org/2000/svg">
<mask id="mask0_2006_457" style="mask-type:luminance" maskUnits="userSpaceOnUse" x="-1" y="-1" width="112" height="20">
<path d="M110.919 -0.0012207H-0.000244141V18.2996H110.919V-0.0012207Z" fill="white"/>
</mask>
<g mask="url(#mask0_2006_457)">
<path d="M7.22806 18.2996H0.592041L14.8156 -0.0012207H21.4516L7.22806 18.2996Z" fill="#AB9DFF"/>
<path d="M22.0438 18.2996H15.4078L29.6265 -0.0012207H36.2625L22.0438 18.2996Z" fill="#AB9DFF"/>
<path d="M36.8547 18.2996H30.2188L44.4422 -0.0012207H51.0783L36.8547 18.2996Z" fill="#AB9DFF"/>
<path d="M51.6705 18.2996H45.0345L59.2532 -0.0012207H65.8892L51.6705 18.2996Z" fill="#AB9DFF"/>
<path d="M66.4814 18.2996H59.8454L74.069 -0.0012207H80.705L66.4814 18.2996Z" fill="#AB9DFF"/>
<path d="M81.2972 18.2996H74.6563L88.8799 -0.0012207H95.5159L81.2972 18.2996Z" fill="#AB9DFF"/>
<path d="M96.1081 18.2996H89.4721L103.691 -0.0012207H110.327L96.1081 18.2996Z" fill="#AB9DFF"/>
</g>
</svg>
