<svg width="78" height="21" viewBox="0 0 78 21" fill="none" xmlns="http://www.w3.org/2000/svg">
<path d="M20.65 3.89999L16.75 0L10.33 6.42999L3.89996 0L0 3.89999L6.42999 10.33L0 16.75L3.89996 20.65L10.33 14.23L16.75 20.65L20.65 16.75L14.23 10.33L20.65 3.89999Z" fill="#0A052E"/>
<path d="M49.01 3.89999L45.11 0L38.68 6.42999L32.26 0L28.36 3.89999L34.78 10.33L28.36 16.75L32.26 20.65L38.68 14.23L45.11 20.65L49.01 16.75L42.58 10.33L49.01 3.89999Z" fill="#0A052E"/>
<path d="M77.36 3.89999L73.46 0L67.04 6.42999L60.62 0L56.72 3.89999L63.14 10.33L56.72 16.75L60.62 20.65L67.04 14.23L73.46 20.65L77.36 16.75L70.94 10.33L77.36 3.89999Z" fill="#0A052E"/>
</svg>
