<svg width="8" height="92" viewBox="0 0 8 92" fill="none" xmlns="http://www.w3.org/2000/svg">
<mask id="mask0_2006_46" style="mask-type:luminance" maskUnits="userSpaceOnUse" x="0" y="0" width="16" height="92">
<path d="M15.1793 0L15.1793 92L7.62939e-06 92L2.81684e-06 5.54439e-07L15.1793 0Z" fill="white"/>
</mask>
<g mask="url(#mask0_2006_46)">
<path d="M7.28483e-06 86.0046L7.62939e-06 91.5088L15.1793 79.7113L15.1793 74.2072L7.28483e-06 86.0046Z" fill="#FF6B00"/>
<path d="M7.28483e-06 73.716L7.62939e-06 79.2201L15.1793 67.4267L15.1793 61.9225L7.28483e-06 73.716Z" fill="#FF6B00"/>
<path d="M7.28483e-06 61.4313L7.62939e-06 66.9354L15.1793 55.138L15.1793 49.6338L7.28483e-06 61.4313Z" fill="#FF6B00"/>
<path d="M7.28483e-06 49.1426L7.62939e-06 54.6467L15.1793 42.8533L15.1793 37.3492L7.28483e-06 49.1426Z" fill="#FF6B00"/>
<path d="M7.28483e-06 36.8579L7.62939e-06 42.3621L15.1793 30.5646L15.1793 25.0605L7.28483e-06 36.8579Z" fill="#FF6B00"/>
<path d="M7.28458e-06 24.5693L7.62939e-06 30.0774L15.1793 18.28L15.1793 12.7758L7.28458e-06 24.5693Z" fill="#FF6B00"/>
<path d="M7.28483e-06 12.2846L7.62939e-06 17.7888L15.1793 5.99532L15.1793 0.491165L7.28483e-06 12.2846Z" fill="#FF6B00"/>
</g>
</svg>
