<svg width="10" height="92" viewBox="0 0 10 92" fill="none" xmlns="http://www.w3.org/2000/svg">
<mask id="mask0_2006_58" style="mask-type:luminance" maskUnits="userSpaceOnUse" x="-6" y="0" width="16" height="92">
<path d="M9.17932 92L9.17932 0L-5.99999 -5.54439e-07L-6 92L9.17932 92Z" fill="white"/>
</mask>
<g mask="url(#mask0_2006_58)">
<path d="M-5.99999 5.99537L-5.99999 0.491241L9.17932 12.2887L9.17932 17.7928L-5.99999 5.99537Z" fill="#FF6B00"/>
<path d="M-6.00005 18.2841L-6.00005 12.78L9.17926 24.5733L9.17926 30.0775L-6.00005 18.2841Z" fill="#FF6B00"/>
<path d="M-6.00005 30.5687L-6.00005 25.0646L9.17926 36.862L9.17926 42.3662L-6.00005 30.5687Z" fill="#FF6B00"/>
<path d="M-6.00005 42.8574L-6.00005 37.3533L9.17926 49.1467L9.17926 54.6508L-6.00005 42.8574Z" fill="#FF6B00"/>
<path d="M-6.00005 55.1421L-6.00005 49.6379L9.17926 61.4354L9.17926 66.9395L-6.00005 55.1421Z" fill="#FF6B00"/>
<path d="M-6.00005 67.4307L-6.00005 61.9226L9.17926 73.72L9.17926 79.2242L-6.00005 67.4307Z" fill="#FF6B00"/>
<path d="M-6.00005 79.7154L-6.00005 74.2113L9.17926 86.0047L9.17926 91.5089L-6.00005 79.7154Z" fill="#FF6B00"/>
</g>
</svg>
