<svg width="1446" height="174" viewBox="0 0 1446 174" fill="none" xmlns="http://www.w3.org/2000/svg">
<mask id="mask0_4028_6" style="mask-type:luminance" maskUnits="userSpaceOnUse" x="1217" y="152" width="229" height="38">
<path d="M1445.49 152.22H1217V189.919H1445.49V152.22Z" fill="white"/>
</mask>
<g mask="url(#mask0_4028_6)">
<path d="M1231.89 189.919H1218.22L1247.52 152.22H1261.19L1231.89 189.919Z" fill="#FF6B00"/>
<path d="M1262.41 189.919H1248.74L1278.03 152.22H1291.7L1262.41 189.919Z" fill="#FF6B00"/>
<path d="M1292.92 189.919H1279.25L1308.55 152.22H1322.22L1292.92 189.919Z" fill="#FF6B00"/>
<path d="M1323.44 189.919H1309.77L1339.06 152.22H1352.73L1323.44 189.919Z" fill="#FF6B00"/>
<path d="M1353.95 189.919H1340.28L1369.58 152.22H1383.25L1353.95 189.919Z" fill="#FF6B00"/>
<path d="M1384.47 189.919H1370.79L1400.09 152.22H1413.76L1384.47 189.919Z" fill="#FF6B00"/>
<path d="M1414.98 189.919H1401.31L1430.6 152.22H1444.27L1414.98 189.919Z" fill="#FF6B00"/>
<path d="M1445.49 189.919H1431.82L1461.12 152.22H1474.79L1445.49 189.919Z" fill="#FF6B00"/>
</g>
<path d="M-32.1819 157.224L131.5 0.75L725.5 253.2L-40 206.67L-32.1819 157.224Z" fill="#FF6B00"/>
<path d="M135.5 1.24506L714.696 222.51L745 212.403L135.5 1.24506Z" fill="#FF6B00"/>
<path d="M938.57 182.049L857.26 121.53L681 183.217" stroke="#FF6B00" stroke-width="0.97" stroke-miterlimit="10"/>
</svg>
