<svg width="65" height="65" viewBox="0 0 65 65" fill="none" xmlns="http://www.w3.org/2000/svg">
<ellipse cx="32.5" cy="32.475" rx="32.5" ry="32.175" fill="#221F35"/>
<path d="M34.166 28.0215C34.281 28.0144 34.3962 28.0323 34.5034 28.0738C34.6106 28.1154 34.7072 28.1797 34.7862 28.262C34.8653 28.3444 34.9249 28.4429 34.9609 28.5504C34.9968 28.658 35.0082 28.772 34.9942 28.8843L33.8079 41.3866C33.7321 41.9938 33.0016 42.2767 32.5245 41.8835L30.0213 39.8896L28.8989 41.7992C28.2534 42.8973 27.2293 43.1671 26.1114 42.5331C24.9934 41.8991 24.719 40.8929 25.3645 39.7948L26.4829 37.8922L23.5167 36.7753C22.9315 36.5661 22.8155 35.803 23.3127 35.435L33.7431 28.1748C33.8658 28.0841 34.0128 28.0308 34.166 28.0215Z" fill="#FF6B00"/>
<path d="M30 24.06L28 18.12" stroke="#FF6B00" stroke-width="2" stroke-linecap="round"/>
<path d="M40.5 29.9719L46.703 28.7501" stroke="#FF6B00" stroke-width="2" stroke-linecap="round"/>
<path d="M36.808 24.4925L40.0391 19.11" stroke="#FF6B00" stroke-width="2" stroke-linecap="round"/>
</svg>
