<svg width="78" height="21" viewBox="0 0 78 21" fill="none" xmlns="http://www.w3.org/2000/svg">
<path d="M20.65 4.39102L16.75 0.530029L10.33 6.89572L3.89996 0.530029L0 4.39102L6.42999 10.7567L0 17.1125L3.89996 20.9735L10.33 14.6177L16.75 20.9735L20.65 17.1125L14.23 10.7567L20.65 4.39102Z" fill="white"/>
<path d="M49.01 4.39102L45.11 0.530029L38.68 6.89572L32.26 0.530029L28.36 4.39102L34.78 10.7567L28.36 17.1125L32.26 20.9735L38.68 14.6177L45.11 20.9735L49.01 17.1125L42.58 10.7567L49.01 4.39102Z" fill="white"/>
<path d="M77.36 4.39102L73.46 0.530029L67.04 6.89572L60.62 0.530029L56.72 4.39102L63.14 10.7567L56.72 17.1125L60.62 20.9735L67.04 14.6177L73.46 20.9735L77.36 17.1125L70.94 10.7567L77.36 4.39102Z" fill="white"/>
</svg>
