<svg width="49" height="49" viewBox="0 0 49 49" fill="none" xmlns="http://www.w3.org/2000/svg">
<rect x="0.563965" y="0.609985" width="47.564" height="47.564" rx="23.782" fill="#FF6B00"/>
<path d="M30.3239 17.8149C30.4474 17.7665 30.5701 17.7184 30.6986 17.6854C31.1489 17.5698 32.2361 17.4162 32.1192 18.6698C32.0708 19.3191 31.6315 21.5918 31.2895 24.0497L30.2263 30.6575C30.154 31.1064 30.1302 31.578 29.9139 31.978C29.7723 32.2398 29.5353 32.5002 29.1412 32.5834C28.2627 32.7685 26.9445 31.9341 26.7002 31.7485C26.5048 31.6092 23.0387 29.5221 21.8182 28.5021C21.4762 28.2235 21.0853 27.6672 21.867 27.018L26.9929 22.38C27.5787 21.8237 28.1645 20.5251 25.7235 22.1018L19.1946 26.31C18.9903 26.4417 18.7831 26.5732 18.5484 26.6366C18.1878 26.734 17.5448 26.8114 16.6426 26.5542L15.5585 26.2373C14.1708 25.8316 12.9331 24.7098 14.2988 24.2352C19.1248 22.0807 25.0487 19.881 30.3239 17.8149Z" fill="white"/>
</svg>
