<svg width="66" height="67" viewBox="0 0 66 67" fill="none" xmlns="http://www.w3.org/2000/svg">
<rect width="66" height="67" rx="33" fill="#0A052E"/>
<path d="M41.516 24.2561C41.6384 24.2089 41.7595 24.1625 41.8859 24.1275C42.4619 23.9679 44.1614 23.6473 43.9876 25.4838C43.9188 26.3928 43.2946 29.5746 42.8086 33.0156L41.2552 42.5264C41.1808 42.9817 41.1425 43.4497 40.9674 43.8764C40.7894 44.3102 40.4384 44.8207 39.7557 44.9627C38.5073 45.2219 36.6341 44.0537 36.2869 43.7939C36.0092 43.5989 31.0837 40.6769 29.3493 39.2489C28.8633 38.8589 28.3079 38.0802 29.4187 37.1712L36.7028 30.678C37.5353 29.8992 38.3678 28.0812 34.899 30.2886L25.4913 36.2624C25.2875 36.3918 25.0813 36.5199 24.8514 36.5937C24.3788 36.7455 23.4118 36.92 21.9945 36.522L19.8875 35.9151C18.2915 35.4555 16.6033 34.1403 18.1276 33.4809C18.2854 33.4126 18.4635 33.344 18.6639 33.2754C25.5462 30.2484 33.9997 27.1576 41.516 24.2561Z" fill="#8874FF"/>
</svg>
