<svg width="48" height="49" viewBox="0 0 48 49" fill="none" xmlns="http://www.w3.org/2000/svg">
<rect y="0.609985" width="47.564" height="47.564" rx="23.782" fill="#FF6B00"/>
<path d="M25.3904 19.3423C23.9953 19.9203 23.0781 21.1909 23.0311 22.6432C23.0302 22.717 22.9665 22.7745 22.8929 22.7677L22.8419 22.763C20.9952 22.5603 19.3693 21.6235 18.253 20.1019C18.1774 19.9988 18.0764 19.916 17.9593 19.8611C17.8422 19.8062 17.7128 19.7811 17.5831 19.788C17.4533 19.7949 17.3275 19.8336 17.2172 19.9006C17.1069 19.9676 17.0158 20.0607 16.9521 20.1713L16.8772 20.3114L16.8394 20.386C16.2843 21.5052 15.9207 22.8655 16.0543 24.3072L16.0774 24.5129C16.2959 26.2184 17.2355 27.6894 18.9949 28.7928L19.0682 28.837C19.0946 28.8529 19.0933 28.8916 19.0659 28.9058C18.0507 29.4055 17.122 29.6233 16.1114 29.5841C15.2961 29.5539 14.995 30.618 15.7115 30.9994C18.4892 32.4772 21.4716 32.9332 24.0432 32.2052C27.1776 31.3159 29.5647 29.0226 30.478 25.8498L30.5761 25.4768C30.7598 24.7284 30.8633 23.965 30.8857 23.1978C30.8872 23.0333 30.9273 22.8715 31.0028 22.7253L31.1914 22.3605L31.5311 21.7109L31.6963 21.3838L31.7874 21.1977C31.992 20.7719 32.1394 20.4192 32.2305 20.12L32.2376 20.0922C32.2401 20.0826 32.2434 20.0733 32.2475 20.0642C32.4174 19.6173 32.1193 19.0408 31.521 19.0408L31.4268 19.0461C31.3659 19.0534 31.306 19.0678 31.2485 19.089L31.1821 19.1177C30.9618 19.2221 30.7349 19.3127 30.5027 19.389L30.2279 19.4757L30.0187 19.5359C29.6446 19.6372 29.2516 19.5379 28.9103 19.3542C27.9511 18.838 26.7687 18.8351 25.5533 19.2797L25.3904 19.3423Z" fill="white"/>
</svg>
