<svg width="67" height="67" viewBox="0 0 67 67" fill="none" xmlns="http://www.w3.org/2000/svg">
<rect width="67" height="67" rx="33.5" fill="#0A052E"/>
<path d="M35.2452 26.5399C33.2742 27.3481 31.9784 29.1246 31.9119 31.155C31.9107 31.2583 31.8216 31.3387 31.7187 31.3293L31.6446 31.3225C29.0356 31.0391 26.7384 29.7294 25.1612 27.602C25.0544 27.4578 24.9117 27.342 24.7462 27.2653C24.5808 27.1886 24.398 27.1534 24.2147 27.1631C24.0315 27.1727 23.8537 27.2269 23.6979 27.3206C23.5421 27.4143 23.4132 27.5444 23.3233 27.699L23.2175 27.8949L23.1641 27.9992C22.3798 29.5639 21.8661 31.4658 22.0548 33.4814L22.0875 33.7691C22.3962 36.1535 23.7236 38.2103 26.2094 39.7528L26.3129 39.8146C26.35 39.8368 26.3483 39.8912 26.3098 39.9109C24.8755 40.6095 23.5633 40.914 22.1355 40.8592C20.9837 40.817 20.5583 42.3048 21.5705 42.8379C25.495 44.9042 29.7085 45.5416 33.3418 44.5238C37.7702 43.2805 41.1428 40.0742 42.4332 35.6383L42.5717 35.1167C42.8313 34.0704 42.9775 33.0031 43.0091 31.9305C43.0112 31.7005 43.0679 31.4744 43.1743 31.2705L43.441 30.7598L43.921 29.8516L44.1544 29.3943L44.2831 29.134C44.5721 28.5387 44.7805 28.0456 44.9092 27.6273L44.9192 27.5885C44.9227 27.5751 44.9274 27.562 44.9332 27.5493C45.1731 26.9245 44.7521 26.1185 43.9068 26.1185L43.7737 26.1258C43.6875 26.1361 43.603 26.1562 43.5217 26.1859L43.4279 26.2259C43.1167 26.372 42.7961 26.4987 42.4681 26.6053L42.0798 26.7264L41.7842 26.8107C41.2551 26.9524 40.6999 26.8129 40.2164 26.5556C38.8615 25.8349 37.1916 25.8312 35.4753 26.4525L35.2452 26.5399Z" fill="#8874FF"/>
</svg>
